<?xml version="1.0" standalone="no"?>
<!DOCTYPE svg PUBLIC "-//W3C//DTD SVG 20010904//EN"
 "http://www.w3.org/TR/2001/REC-SVG-20010904/DTD/svg10.dtd">
<svg version="1.0" xmlns="http://www.w3.org/2000/svg"
 width="512.000000pt" height="512.000000pt" viewBox="0 0 512.000000 512.000000"
 preserveAspectRatio="xMidYMid meet">
<metadata>
Created by potrace 1.11, written by Peter Selinger 2001-2013
</metadata>
<g transform="translate(0.000000,512.000000) scale(0.100000,-0.100000)"
fill="#000000" stroke="none">
<path d="M2355 5111 c-509 -41 -995 -235 -1395 -555 -162 -130 -377 -358 -488
-516 -117 -168 -252 -426 -319 -610 -49 -135 -100 -339 -125 -498 -25 -164
-30 -528 -10 -682 66 -500 261 -947 577 -1325 423 -505 994 -818 1655 -906
144 -19 510 -17 650 4 466 71 853 231 1212 503 134 101 383 351 483 484 461
611 625 1370 458 2118 -211 947 -976 1713 -1925 1927 -231 52 -540 74 -773 56z
m400 -81 c961 -78 1793 -708 2128 -1610 153 -413 192 -843 116 -1289 -71 -424
-270 -844 -558 -1181 -100 -117 -125 -141 -231 -234 -294 -258 -587 -422 -943
-530 -563 -170 -1175 -129 -1727 116 -376 166 -745 470 -994 818 -427 595
-566 1342 -385 2059 102 404 331 807 633 1116 511 522 1236 793 1961 735z"/>
<path d="M2325 4970 c-613 -65 -1171 -349 -1570 -796 -314 -353 -515 -783
-591 -1264 -26 -162 -26 -538 0 -700 68 -433 240 -826 511 -1171 71 -90 279
-299 359 -359 379 -289 749 -450 1186 -517 160 -24 520 -24 680 0 529 81 997
315 1371 687 369 367 604 836 685 1365 26 166 26 521 1 690 -65 429 -227 799
-516 1181 -56 74 -277 295 -356 356 -350 272 -722 437 -1146 508 -140 24 -477
35 -614 20z m135 -1195 l0 -315 -271 0 -270 1 7 22 c13 43 57 143 106 242 48
96 184 311 212 334 15 12 106 28 174 30 l42 1 0 -315z m253 306 c53 -9 50 -5
148 -150 90 -133 229 -410 229 -457 0 -12 -41 -14 -250 -14 l-250 0 0 315 0
315 38 -1 c20 0 58 -4 85 -8z m337 -83 c172 -65 354 -181 495 -316 71 -67 185
-199 185 -214 0 -4 -110 -7 -245 -7 -244 0 -246 0 -255 22 -94 234 -169 386
-242 494 -33 48 -35 58 -10 48 9 -4 42 -16 72 -27z m-1010 8 c0 -2 -18 -33
-39 -69 -57 -93 -152 -288 -191 -389 l-34 -88 -228 0 c-125 0 -228 3 -228 6 0
15 107 138 191 219 135 130 292 232 459 301 57 23 70 27 70 20z m-321 -748
c-33 -130 -79 -451 -79 -560 0 -17 -21 -18 -296 -18 l-296 0 7 63 c18 176 67
358 135 505 l39 82 254 0 255 0 -19 -72z m741 -253 l0 -325 -339 0 c-187 0
-342 3 -344 8 -7 12 11 228 28 332 9 52 27 143 41 203 l26 107 294 0 294 0 0
-325z m695 273 c35 -118 85 -445 85 -555 l0 -43 -325 0 -325 0 0 325 0 325
275 0 274 0 16 -52z m704 -25 c71 -161 119 -339 136 -510 l7 -63 -316 0 -316
0 0 58 c0 119 -42 396 -85 565 l-7 27 273 0 274 0 34 -77z m-2215 -780 c12
-151 38 -336 61 -431 13 -53 25 -105 27 -116 3 -18 -8 -18 -247 -18 l-250 1
-33 60 c-65 119 -131 349 -147 514 l-7 67 295 0 295 0 6 -77z m816 -245 l0
-323 -292 2 -293 2 -18 63 c-28 100 -65 315 -72 413 -3 50 -8 107 -10 128 l-5
37 345 0 345 0 0 -322z m780 295 c0 -135 -39 -385 -90 -583 l-9 -35 -273 2
-273 1 -3 321 -2 321 325 0 325 0 0 -27z m755 -35 c-19 -177 -72 -367 -139
-499 l-41 -80 -268 -2 c-147 -1 -267 1 -267 5 0 3 11 53 25 110 29 123 53 286
62 426 l6 102 314 0 314 0 -6 -62z m-2181 -808 c18 -47 45 -112 60 -145 35
-77 145 -273 157 -281 13 -8 11 -24 -3 -24 -33 1 -224 99 -328 168 -119 80
-283 233 -348 325 l-34 47 232 -2 232 -3 32 -85z m646 -223 l0 -313 -77 7
c-137 13 -132 10 -198 106 -108 156 -182 295 -241 451 l-24 62 270 0 270 0 0
-313z m630 302 c0 -39 -145 -328 -226 -449 -102 -154 -96 -149 -191 -158 l-83
-8 0 313 0 313 250 0 c173 0 250 -3 250 -11z m609 -34 c-35 -49 -147 -167
-219 -231 -101 -89 -261 -186 -406 -244 -58 -23 -108 -39 -111 -36 -3 2 6 20
20 38 62 82 220 403 242 491 l7 27 250 0 249 0 -32 -45z"/>
</g>
</svg>
